<svg xmlns="http://www.w3.org/2000/svg" viewBox="0 0 512 512" width="512" height="512">
  <rect width="512" height="512" fill="#800000"/>
  <path d="M40.10 256.80C40.10 294.80 72.10 323.60 107.50 323.60C151.30 323.60 174.70 289.80 174.70 253.80C174.70 214.40 143.90 188 109.10 188C64.30 188 40.10 220.60 40.10 256.80M106.10 195.80C138.10 195.80 155.30 221.80 155.30 259.80C155.30 294 140.10 315.80 110.10 315.80C80.50 315.80 59.50 285 59.50 250.80C59.50 222.80 76.50 195.80 106.10 195.80M232.50 190.20C229.10 190.20 226.70 190.80 226.70 192.40C226.70 194.20 228.90 195.40 233.30 196.80C240.10 198.80 248.90 204.60 252.30 213.20L263.70 241.60C264.70 244.20 265.30 245.80 265.30 247.40C265.30 248.60 264.90 250 264.10 252L248.50 290.60C247.70 292.80 246.90 293.40 245.50 290.40C232.10 260.20 224.90 243 212.70 211.80C212.70 211.80 211.10 207.40 211.10 203.20C211.10 200.20 211.90 197.40 215.10 196.60C219.70 195.40 221.70 194.40 221.70 192.60C221.70 191 219.30 190.40 215.90 190.40C211.90 190.40 204.70 190.80 197.30 190.80C190.50 190.80 185.70 190.20 179.50 190.20C176.10 190.20 173.70 190.80 173.70 192.40C173.70 194.20 175.90 195.40 180.30 196.80C187.10 198.80 191.50 203.20 194.70 210L237.90 318.40C238.90 321 240.10 324 240.70 324C242.30 324 244.10 320.60 245.10 317.80C253.50 294.20 258.30 281.40 267.90 258.80C268.90 256.20 269.30 255.80 270.10 257.60C279.50 281 284.10 295.60 294.70 319.40C295.50 321.20 297.10 323.20 298.10 323.20C299.30 323.20 302.50 314.80 304.50 309.20L336.70 214C338.90 208.20 343.30 198.60 353.10 196.40C357.70 195.40 359.70 194.20 359.70 192.40C359.70 190.80 357.30 190.20 353.90 190.20C348.90 190.20 342.50 190.80 335.90 190.80C330.70 190.80 326.70 190.60 321.50 190.60C318.10 190.60 315.70 191.20 315.70 192.80C315.70 194.60 319.50 196 322.30 196.80C326.70 198 328.30 201.40 328.30 205.40C328.30 207.60 327.90 210.20 327.10 212.60C318.10 243.20 309.30 272.40 302.70 290C301.90 291.80 301.10 292.60 300.50 291.20L279.90 238.20C279.70 237.80 279.70 237.40 279.70 236.80C279.70 235 280.30 232.60 281.10 230.60C284.30 222 289.50 209.80 291.70 206C295.10 200.40 296.70 198.40 305.30 196.40C309.90 195.40 311.90 194.20 311.90 192.40C311.90 190.80 309.50 190.20 306.10 190.20C301.30 190.20 298.90 190.80 294.30 190.80C290.50 190.80 289.70 190.40 283.90 190.40C280.50 190.40 278.10 191 278.10 192.60C278.10 196 285.50 196.40 285.50 201.20C285.50 201.60 285.50 202 285.30 202.60C284.30 206 280.50 218 277.30 225.20C276.50 227 275.90 227.80 275.50 227.80C274.90 227.80 274.50 227 273.70 225.20C271.90 221.40 265.50 205 264.70 202.60C264.50 202 264.30 201.60 264.30 201C264.30 196.40 272.50 196 272.50 192.60C272.50 191 270.10 190.40 266.70 190.40C262.70 190.40 257.30 190.80 251.30 190.80C244.10 190.80 238.70 190.20 232.50 190.20M398.90 207.40C398.90 199.60 406.70 198.20 416.70 196.40C421.30 195.60 423.30 194.20 423.30 192.40C423.30 190.80 420.90 190.20 417.50 190.20C406.70 190.20 402.10 190.80 392.30 190.80C383.50 190.80 380.70 190.20 369.90 190.20C366.50 190.20 364.10 190.80 364.10 192.40C364.10 194.20 366.10 195.60 370.70 196.40C380.70 198.20 382.90 199.20 382.90 208.80L382.90 301.60C382.90 310.40 377.10 314 366.70 316C365.90 316.20 362.30 317 362.30 319.40C362.30 320.80 364.30 321.80 367.90 321.80C367.90 321.80 384.90 320.80 394.90 320.80C414.90 320.80 436.70 321.80 463.50 321.80C465.50 321.80 466.10 320.20 466.30 318.40C467.10 310 468.90 303.40 471.70 293C471.70 292.80 471.90 292.40 471.90 292C471.90 290.40 471.10 288.40 469.50 288.40C467.70 288.40 465.70 292.80 465.10 294.40C461.70 301.60 459.90 304 454.70 308.60C451.10 311.80 444.50 313.80 443.50 313.80L414.30 313.80C401.10 313.80 398.90 309.80 398.90 301.60" fill="white"/>
</svg>