<?xml version="1.0" standalone="no"?>
<!DOCTYPE svg PUBLIC "-//W3C//DTD SVG 20010904//EN"
 "http://www.w3.org/TR/2001/REC-SVG-20010904/DTD/svg10.dtd">
<svg version="1.0" xmlns="http://www.w3.org/2000/svg"
 width="200.000000pt" height="200.000000pt" viewBox="0 0 200.000000 200.000000"
 preserveAspectRatio="xMidYMid meet">
<metadata>
Created by potrace 1.11, written by Peter Selinger 2001-2013
</metadata>
<g transform="translate(0.000000,200.000000) scale(0.100000,-0.100000)"
fill="#000000" stroke="none">
<path d="M0 1000 l0 -1000 1000 0 1000 0 0 1000 0 1000 -1000 0 -1000 0 0
-1000z m496 255 c181 -54 237 -301 97 -430 -74 -68 -192 -92 -299 -60 -105 31
-174 127 -174 241 0 70 10 102 47 157 62 89 204 129 329 92z m324 -5 c0 -5 -9
-10 -20 -10 -11 0 -20 -6 -20 -14 0 -14 122 -321 147 -371 l16 -29 38 74 c21
41 38 82 39 91 0 9 -25 69 -55 133 -48 103 -57 116 -80 116 -14 0 -25 5 -25
10 0 6 37 10 90 10 87 0 117 -11 64 -24 -29 -8 -28 -14 17 -110 l28 -60 31 67
c35 78 37 97 10 104 -43 11 -17 23 50 23 73 0 93 -13 39 -25 -27 -6 -36 -17
-68 -89 -21 -44 -40 -88 -43 -96 -3 -9 15 -60 41 -114 l46 -98 38 89 c40 95
107 278 107 292 0 5 -11 12 -25 15 -47 12 -25 26 40 26 36 0 65 -3 65 -7 0 -5
-12 -15 -28 -24 -22 -13 -40 -49 -104 -215 -43 -109 -83 -214 -89 -232 -6 -18
-15 -32 -20 -30 -5 2 -33 52 -62 111 l-52 109 -55 -111 c-30 -61 -59 -111 -65
-111 -9 0 -144 303 -192 434 -12 32 -25 49 -40 52 -48 12 -20 24 57 24 47 0
80 -4 80 -10z m860 1 c0 -6 -19 -11 -42 -13 l-43 -3 -3 -227 -2 -228 87 0
c101 0 136 15 173 74 12 21 24 35 27 32 2 -2 -1 -31 -8 -65 l-12 -61 -221 0
c-196 1 -219 2 -202 15 11 8 32 15 47 15 19 0 28 6 33 23 3 12 6 109 6 215 0
145 -3 194 -12 196 -7 3 -25 7 -40 10 -16 4 -28 11 -28 16 0 6 48 10 120 10
68 0 120 -4 120 -9z"/>
<path d="M315 1241 c-117 -53 -159 -226 -90 -367 56 -115 189 -148 297 -73 90
64 103 293 21 390 -34 40 -96 69 -148 69 -22 0 -58 -9 -80 -19z"/>
</g>
</svg>
